<?xml version="1.0" standalone="no"?>
<!DOCTYPE svg PUBLIC "-//W3C//DTD SVG 20010904//EN"
 "http://www.w3.org/TR/2001/REC-SVG-20010904/DTD/svg10.dtd">
<svg version="1.0" xmlns="http://www.w3.org/2000/svg"
 width="207.000000pt" height="207.000000pt" viewBox="0 0 207.000000 207.000000"
 preserveAspectRatio="xMidYMid meet">
<metadata>
Created by potrace 1.10, written by Peter Selinger 2001-2011
</metadata>
<g transform="translate(0.000000,207.000000) scale(0.100000,-0.100000)"
fill="#000000" stroke="none">
<path d="M1352 1922 c-73 -26 -125 -73 -165 -147 -16 -31 -21 -59 -23 -130
l-1 -89 -79 -44 c-43 -24 -108 -60 -144 -79 -62 -34 -87 -48 -226 -123 l-61
-33 -34 24 c-64 47 -88 54 -183 54 -81 0 -96 -3 -138 -27 -166 -98 -200 -322
-69 -457 104 -107 269 -120 384 -30 l37 30 88 -49 c109 -61 266 -142 275 -142
5 0 7 34 5 76 l-3 75 -101 54 c-56 29 -121 65 -145 78 l-44 25 -3 84 -3 84 38
21 c21 11 65 35 98 53 33 18 78 43 100 55 22 12 81 44 130 70 50 26 105 57
123 67 30 18 35 19 50 5 33 -29 89 -55 144 -66 172 -36 338 102 338 281 0 80
-15 126 -59 185 -74 97 -211 137 -329 95z"/>
<path d="M1173 960 c-67 -40 -65 -20 -63 -588 l0 -162 33 -36 c42 -46 95 -55
160 -26 25 11 134 70 244 130 109 60 223 123 253 140 67 36 100 81 100 134 0
78 -17 94 -230 215 -108 62 -218 122 -328 180 -73 38 -122 42 -169 13z m281
-301 c201 -110 187 -94 121 -135 -32 -19 -59 -34 -60 -34 -2 0 -42 -22 -88
-49 -139 -80 -127 -91 -127 113 0 123 3 176 11 176 6 0 70 -32 143 -71z"/>
</g>
</svg>
